<svg width="496" height="496" viewBox="0 0 496 496" fill="none" xmlns="http://www.w3.org/2000/svg">
<g clip-path="url(#clip0_1725_631)">
<path d="M493.396 376.067L411.351 463.941C409.577 465.85 407.428 467.373 405.038 468.416C402.648 469.458 400.068 469.998 397.461 470H8.53264C6.67765 469.999 4.86322 469.458 3.31152 468.442C1.75982 467.427 0.538189 465.982 -0.203779 464.283C-0.945747 462.585 -1.17585 460.708 -0.865924 458.881C-0.555993 457.054 0.280522 455.357 1.5412 453.998L83.4939 366.123C85.2684 364.214 87.4176 362.691 89.8074 361.649C92.1973 360.606 94.7765 360.067 97.3842 360.064H486.312C488.184 360.026 490.026 360.541 491.605 361.545C493.185 362.55 494.432 363.998 495.189 365.709C495.946 367.42 496.18 369.316 495.861 371.159C495.542 373.002 494.685 374.709 493.396 376.067ZM411.351 199.069C409.57 197.169 407.419 195.651 405.031 194.61C402.643 193.568 400.067 193.024 397.461 193.01H8.53264C6.67765 193.011 4.86322 193.552 3.31152 194.568C1.75982 195.583 0.538189 197.028 -0.203779 198.727C-0.945747 200.425 -1.17585 202.302 -0.865924 204.129C-0.555993 205.956 0.280522 207.653 1.5412 209.012L83.4939 296.933C85.2753 298.833 87.4258 300.351 89.8141 301.392C92.2024 302.434 94.7782 302.978 97.3842 302.992H486.312C488.163 302.982 489.971 302.434 491.516 301.415C493.061 300.397 494.275 298.951 495.012 297.254C495.748 295.558 495.974 293.684 495.663 291.861C495.351 290.039 494.515 288.346 493.257 286.99L411.351 199.069ZM8.53264 135.938H397.461C400.069 135.936 402.648 135.396 405.038 134.354C407.428 133.312 409.577 131.788 411.351 129.879L493.396 42.0045C494.358 40.9889 495.083 39.7736 495.52 38.4455C495.957 37.1174 496.095 35.7093 495.924 34.3218C495.753 32.9343 495.277 31.6018 494.53 30.4194C493.783 29.237 492.784 28.234 491.604 27.482C490.025 26.4782 488.184 25.9633 486.312 26.002H97.3842C94.7765 26.0048 92.1973 26.5442 89.8074 27.5866C87.4176 28.629 85.2684 30.152 83.4939 32.0608L1.5412 119.935C0.280522 121.295 -0.555993 122.992 -0.865924 124.818C-1.17585 126.645 -0.945747 128.523 -0.203779 130.221C0.538189 131.919 1.75982 133.365 3.31152 134.38C4.86322 135.395 6.67765 135.937 8.53264 135.938Z" fill="url(#paint0_linear_1725_631)"/>
</g>
<defs>
<linearGradient id="paint0_linear_1725_631" x1="40.9433" y1="480.591" x2="448.257" y2="20.8835" gradientUnits="userSpaceOnUse">
<stop offset="0.08" stop-color="#9945FF"/>
<stop offset="0.3" stop-color="#8752F3"/>
<stop offset="0.5" stop-color="#5497D5"/>
<stop offset="0.6" stop-color="#43B4CA"/>
<stop offset="0.72" stop-color="#28E0B9"/>
<stop offset="0.97" stop-color="#19FB9B"/>
</linearGradient>
<clipPath id="clip0_1725_631">
<rect width="496" height="496" fill="white"/>
</clipPath>
</defs>
</svg>
